# xmcd
# 
# Track frame offsets:
#   150
#   14100
#   33750
#   52275
#   67425
#   83325
#   101250
#   113025
#   126975
#   144075
#   160500
#   181050
#   198900
#   216600
#   228000
# 
# Disc length: 3254 seconds
# 
# Revision: 2
# Processed by: cddbd v1.5.2PL0 Copyright (c) Steve Scherf et al.
# Submitted via: Synapstar 1.0 
# 
DISCID=c80cb40f
DTITLE=Various Artist - Dkg3038
DYEAR=1900
DGENRE=Country
TTITLE0=Alabama - Face To Face
TTITLE1=Alabama - You've Got The Touch
TTITLE2=Hank Williams Jr - Fallin' Again
TTITLE3=Alabama - Born Country
TTITLE4=Brooks and Dunn - She's Not The Cheatin' Kind
TTITLE5=Brooks and Dunn - She Used To Be Mine
TTITLE6=Highway 101 - Walkin' Talkin' Cryin' Barely Beating Broken Heart
TTITLE7=Johnny Cash - The Highwayman
TTITLE8=Pantera - The Walk
TTITLE9=Diamond Rio - Meet In The Middle
TTITLE10=Willie Nelson - Funny How Time Slips Away
TTITLE11=Judds - Give A Little Love
TTITLE12=Judds - One Hundred And Two
TTITLE13=Jaheim - Just In Case
TTITLE14=Forester Sisters - Lyin' In His Arms Again
EXTD=MediaType: Karaoke CD+G Producer: DK
EXTT0=
EXTT1=
EXTT2=
EXTT3=
EXTT4=
EXTT5=
EXTT6=
EXTT7=
EXTT8=
EXTT9=
EXTT10=
EXTT11=
EXTT12=
EXTT13=
EXTT14=
PLAYORDER=
